User Type,Username,Date,Text
[T],CODYBOSS1969,2011-05-15T20:54Z,"Fast download but mediocre quality [in 2011] even for this size:


General
Complete name                    : Meet The Parents (2000) Dvdrip xvid\Meet The Parents (2000) Dvdrip xvid..avi
Format                           : AVI
Format/Info                      : Audio Video Interleave
File size                        : 697 MiB
Duration                         : 1h 47mn
Overall bit rate                 : 905 Kbps
Writing application              : Nandub v1.0rc2
Writing library                  : Nandub build 1853/release

Video
ID                               : 0
Format                           : MPEG-4 Visual
Format settings, BVOP            : Yes
Format settings, QPel            : No
Format settings, GMC             : No warppoints
Format settings, Matrix          : Default (MPEG)
Codec ID                         : XVID
Codec ID/Hint                    : XviD
Duration                         : 1h 47mn
Bit rate                         : 765 Kbps
Width                            : 576 pixels
Height                           : 304 pixels
Display aspect ratio             : 1.895
Frame rate                       : 23.976 fps
Color space                      : YUV
Chroma subsampling               : 4:2:0
Bit depth                        : 8 bits
Scan type                        : Progressive
Compression mode                 : Lossy
Bits/(Pixel*Frame)               : 0.182
Stream size                      : 589 MiB (85%)

Audio
ID                               : 1
Format                           : MPEG Audio
Format version                   : Version 1
Format profile                   : Layer 3
Mode                             : Joint stereo
Mode extension                   : MS Stereo
Codec ID                         : 55
Codec ID/Hint                    : MP3
Duration                         : 1h 47mn
Bit rate mode                    : Variable
Bit rate                         : 127 Kbps
Minimum bit rate                 : 96.0 Kbps
Channel(s)                       : 2 channels
Sampling rate                    : 48.0 KHz
Compression mode                 : Lossy
Stream size                      : 97.8 MiB (14%)
Alignment                        : Aligned on interleaves
Interleave, duration             : 24 ms (0.58 video frame)
Interleave, preload duration     : 30 ms
Writing library                  : LAME3.93 
Encoding settings                : -m j -V 1 -q 2 -lowpass 19.5 --vbr-new -b 96


Lame 3.93 ???  It's an old rip, maybe a re-upload !!!!
 Thanks anyway gunnsalius!"
,fuckjews,2011-07-01T17:12Z,thanks for the upload gunnsalius
,sharrinn,2012-01-08T16:25Z,thank you x
